<svg width="24" height="24" viewBox="0 0 24 24" fill="none" xmlns="http://www.w3.org/2000/svg">
<g clip-path="url(#clip0_2167_4028)">
<path d="M23.4437 0.719727L13.1455 8.33966L15.0605 3.84899L23.4437 0.719727Z" fill="#E17726"/>
<path d="M0.580322 0.728516L8.94103 3.84937L10.7594 8.39893L0.580322 0.728516Z" fill="#E27625"/>
<path d="M19.2994 16.9253L23.851 17.0119L22.2603 22.4159L16.7063 20.8867L19.2994 16.9253Z" fill="#E27625"/>
<path d="M4.70058 16.9253L7.28407 20.8867L1.73938 22.416L0.158325 17.0119L4.70058 16.9253Z" fill="#E27625"/>
<path d="M10.5123 7.24023L10.6984 13.2481L5.13232 12.9948L6.71554 10.6063L6.73558 10.5833L10.5123 7.24023Z" fill="#E27625"/>
<path d="M13.43 7.17334L17.2644 10.5836L17.2842 10.6065L18.8675 12.995L13.3027 13.2482L13.43 7.17334Z" fill="#E27625"/>
<path d="M7.44703 16.9424L10.4862 19.3104L6.95581 21.0149L7.44703 16.9424Z" fill="#E27625"/>
<path d="M16.5535 16.9424L17.0346 21.0153L13.514 19.3106L16.5535 16.9424Z" fill="#E27625"/>
<path d="M13.5917 19.0874L17.1642 20.8173L13.841 22.3967L13.8755 21.3528L13.5917 19.0874Z" fill="#D5BFB2"/>
<path d="M10.4073 19.0884L10.1345 21.3359L10.1569 22.3956L6.82593 20.8175L10.4073 19.0884Z" fill="#D5BFB2"/>
<path d="M9.37563 14.0322L10.3092 15.9942L7.13074 15.0631L9.37563 14.0322Z" fill="#233447"/>
<path d="M14.6242 14.0322L16.8797 15.0629L13.6909 15.9937L14.6242 14.0322Z" fill="#233447"/>
<path d="M7.68998 16.9224L7.17619 21.1448L4.42249 17.0147L7.68998 16.9224Z" fill="#CC6228"/>
<path d="M16.3103 16.9224L19.5779 17.0147L16.8138 21.145L16.3103 16.9224Z" fill="#CC6228"/>
<path d="M18.948 12.7559L16.57 15.1794L14.7366 14.3415L13.8588 16.1869L13.2833 13.0136L18.948 12.7559Z" fill="#CC6228"/>
<path d="M5.05078 12.7559L10.7165 13.0136L10.141 16.187L9.26304 14.3418L7.43926 15.1795L5.05078 12.7559Z" fill="#CC6228"/>
<path d="M4.8905 12.2588L7.58097 14.9889L7.67421 17.6841L4.8905 12.2588Z" fill="#E27525"/>
<path d="M19.1122 12.2539L16.3235 17.6889L16.4285 14.9889L19.1122 12.2539Z" fill="#E27525"/>
<path d="M10.585 12.4248L10.6932 13.1064L10.9608 14.8043L10.7888 20.0191L9.97549 15.83L9.97522 15.7867L10.585 12.4248Z" fill="#E27525"/>
<path d="M13.4135 12.4155L14.0249 15.7868L14.0246 15.8301L13.2093 20.0297L13.177 18.9793L13.0498 14.7735L13.4135 12.4155Z" fill="#E27525"/>
<path d="M16.6677 14.8804L16.5766 17.2221L13.7384 19.4334L13.1647 19.028L13.8078 15.7153L16.6677 14.8804Z" fill="#F5841F"/>
<path d="M7.34216 14.8804L10.1921 15.7153L10.8353 19.0279L10.2615 19.4333L7.42317 17.2218L7.34216 14.8804Z" fill="#F5841F"/>
<path d="M6.28296 20.3003L9.91409 22.0208L9.89872 21.2861L10.2025 21.0194H13.7963L14.1111 21.2852L14.088 22.0194L17.6961 20.3046L15.9404 21.7555L13.8173 23.2136H10.1734L8.05178 21.7495L6.28296 20.3003Z" fill="#C0AC9D"/>
<path d="M13.3316 18.8584L13.845 19.2211L14.1458 21.6215L13.7105 21.2539H10.2909L9.86377 21.6289L10.1548 19.2212L10.6683 18.8584H13.3316Z" fill="#161616"/>
<path d="M22.7639 0.930664L24.0001 4.63918L23.2281 8.38884L23.7778 8.81294L23.0339 9.38049L23.5929 9.81224L22.8527 10.4865L23.3072 10.8156L22.101 12.2243L17.1538 10.7838L17.1109 10.7609L13.5459 7.7535L22.7639 0.930664Z" fill="#763E1A"/>
<path d="M1.23619 0.930664L10.4542 7.7535L6.88916 10.7609L6.84629 10.7838L1.89907 12.2243L0.692926 10.8156L1.14706 10.4867L0.40711 9.81224L0.965115 9.38095L0.210125 8.81179L0.78059 8.38743L0 4.63932L1.23619 0.930664Z" fill="#763E1A"/>
<path d="M16.9118 10.4688L22.1536 11.9949L23.8566 17.2435L19.3638 17.2435L16.2681 17.2826L18.5194 12.8943L16.9118 10.4688Z" fill="#F5841F"/>
<path d="M7.08822 10.4688L5.4803 12.8943L7.73193 17.2826L4.63773 17.2435H0.152832L1.84627 11.9949L7.08822 10.4688Z" fill="#F5841F"/>
<path d="M15.3172 3.82373L13.851 7.78361L13.5399 13.1331L13.4208 14.8098L13.4114 19.093H10.5884L10.5793 14.8178L10.4598 13.1316L10.1486 7.78361L8.68262 3.82373H15.3172Z" fill="#F5841F"/>
</g>
<defs>
<clipPath id="clip0_2167_4028">
<rect width="24" height="24" fill="white"/>
</clipPath>
</defs>
</svg>