<svg width="24" height="24" viewBox="0 0 24 24" fill="none" xmlns="http://www.w3.org/2000/svg">
<g clip-path="url(#clip0_2167_4024)">
<path fill-rule="evenodd" clip-rule="evenodd" d="M12 0C18.6281 0 24 5.37188 24 12C24 18.6281 18.6281 24 12 24C5.37188 24 0 18.6281 0 12C0 5.37188 5.37188 0 12 0Z" fill="url(#paint0_radial_2167_4024)"/>
<path d="M7.62659 9.26738C10.0407 6.90957 13.9594 6.90957 16.3735 9.26738L16.6641 9.55332C16.786 9.67051 16.786 9.8627 16.6641 9.97988L15.6703 10.9502C15.6094 11.0111 15.511 11.0111 15.45 10.9502L15.0516 10.5611C13.3641 8.91582 10.636 8.91582 8.94846 10.5611L8.5219 10.9783C8.46096 11.0393 8.36252 11.0393 8.30159 10.9783L7.30784 10.008C7.18596 9.89082 7.18596 9.69863 7.30784 9.58145L7.62659 9.26738ZM18.4313 11.2736L19.3172 12.1361C19.4391 12.2533 19.4391 12.4455 19.3172 12.5627L15.3281 16.458C15.2063 16.5752 15.0094 16.5752 14.8922 16.458L12.061 13.6924C12.0328 13.6643 11.9813 13.6643 11.9531 13.6924L9.1219 16.458C9.00002 16.5752 8.80315 16.5752 8.68596 16.458L4.68284 12.5627C4.56096 12.4455 4.56096 12.2533 4.68284 12.1361L5.56877 11.2736C5.69065 11.1564 5.88753 11.1564 6.00471 11.2736L8.83596 14.0393C8.86409 14.0674 8.91565 14.0674 8.94377 14.0393L11.775 11.2736C11.8969 11.1564 12.0938 11.1564 12.211 11.2736L15.0422 14.0393C15.0703 14.0674 15.1219 14.0674 15.15 14.0393L17.9813 11.2736C18.1125 11.1564 18.3094 11.1564 18.4313 11.2736Z" fill="white"/>
</g>
<defs>
<radialGradient id="paint0_radial_2167_4024" cx="0" cy="0" r="1" gradientUnits="userSpaceOnUse" gradientTransform="translate(7.43866e-05 12.0004) scale(24)">
<stop stop-color="#5D9DF6"/>
<stop offset="1" stop-color="#006FFF"/>
</radialGradient>
<clipPath id="clip0_2167_4024">
<rect width="24" height="24" fill="white"/>
</clipPath>
</defs>
</svg>