<svg width="24" height="24" viewBox="0 0 48 48" fill="none" xmlns="http://www.w3.org/2000/svg">
<g clip-path="url(#clip0_1666_3674)">
<path d="M47.2796 29.8057C44.0741 42.663 31.0511 50.487 18.1924 47.2815C5.33962 44.076 -2.48513 31.053 0.72112 18.1965C3.92512 5.33771 16.9474 -2.48779 29.8024 0.717709C42.6604 3.92321 50.4851 16.9477 47.2796 29.8057Z" fill="#F7931A"/>
<path d="M34.5822 20.5808C35.0592 17.3873 32.6277 15.6705 29.3029 14.5253L30.3814 10.1993L27.7474 9.54305L26.6974 13.755C26.0059 13.5825 25.2949 13.4198 24.5884 13.2585L25.6459 9.0188L23.0142 8.36255L21.9349 12.687C21.3619 12.5565 20.7994 12.4275 20.2534 12.2918L20.2564 12.2783L16.6249 11.3715L15.9244 14.184C15.9244 14.184 17.8782 14.6318 17.8369 14.6595C18.9034 14.9258 19.0969 15.6315 19.0639 16.191L17.8354 21.1193C17.9089 21.138 18.0042 21.165 18.1092 21.207L17.8317 21.138L16.1089 28.0418C15.9784 28.3658 15.6477 28.8518 14.9022 28.6673C14.9284 28.7055 12.9882 28.1895 12.9882 28.1895L11.6809 31.2045L15.1084 32.0588C15.7459 32.2185 16.3707 32.3858 16.9849 32.5433L15.8952 36.9195L18.5254 37.5758L19.6054 33.2468C20.3232 33.4418 21.0207 33.6218 21.7032 33.7913L20.6277 38.1L23.2609 38.7563L24.3507 34.389C28.8409 35.2388 32.2182 34.896 33.6379 30.8355C34.7832 27.5655 33.5817 25.6793 31.2192 24.4485C32.9397 24.0503 34.2364 22.9185 34.5822 20.5808ZM28.5649 29.0175C27.7504 32.2875 22.2454 30.5205 20.4597 30.0765L21.9057 24.2798C23.6907 24.7253 29.4132 25.6073 28.5649 29.0175ZM29.3787 20.5335C28.6362 23.508 24.0537 21.9968 22.5664 21.6263L23.8774 16.3688C25.3647 16.7393 30.1527 17.4308 29.3787 20.5335Z" fill="white"/>
</g>
<defs>
<clipPath id="clip0_1666_3674">
<rect width="48" height="48" fill="white"/>
</clipPath>
</defs>
</svg>