<svg width="24" height="24" viewBox="0 0 16 16" fill="none" xmlns="http://www.w3.org/2000/svg">
<g clip-path="url(#clip0_103_553)">
<path d="M8 16C12.4336 16 16 12.4336 16 8C16 3.5664 12.4336 0 8 0C3.5664 0 0 3.5664 0 8C0 12.4336 3.5664 16 8 16Z" fill="#2775CA"/>
<path d="M10.2 9.26641C10.2 8.10001 9.5 7.70001 8.1 7.53281C7.10001 7.39921 6.90001 7.13281 6.90001 6.66641C6.90001 6.20001 7.2336 5.90001 7.9 5.90001C8.5 5.90001 8.8336 6.10001 9 6.60001C9.0336 6.70001 9.13361 6.76641 9.23361 6.76641H9.76721C9.90081 6.76641 10.0008 6.66641 10.0008 6.53281V6.49921C9.8672 5.76561 9.2672 5.19921 8.5008 5.13281V4.33281C8.5008 4.19921 8.40081 4.09921 8.23441 4.06641H7.73441C7.60081 4.06641 7.50081 4.16641 7.46801 4.33281V5.09921C6.46801 5.23281 5.83441 5.89921 5.83441 6.73281C5.83441 7.83281 6.5008 8.26641 7.9008 8.43281C8.8344 8.59921 9.13441 8.79921 9.13441 9.33281C9.13441 9.86641 8.66801 10.2328 8.03441 10.2328C7.16801 10.2328 6.86801 9.86641 6.76801 9.36641C6.73441 9.23281 6.63441 9.16641 6.53441 9.16641H5.96801C5.83441 9.16641 5.73441 9.26641 5.73441 9.40001V9.43361C5.86801 10.2672 6.4008 10.8672 7.5008 11.0336V11.8336C7.5008 11.9672 7.60081 12.0672 7.76721 12.1H8.26721C8.40081 12.1 8.50081 12 8.53361 11.8336V11.0336C9.53281 10.8664 10.2 10.1664 10.2 9.26641Z" fill="white"/>
<path d="M6.3 12.7664C3.7 11.8328 2.3664 8.93282 3.3336 6.36642C3.8336 4.96642 4.9336 3.90002 6.3 3.40002C6.4336 3.33362 6.5 3.23362 6.5 3.06642V2.60002C6.5 2.46642 6.4336 2.36642 6.3 2.33362C6.2664 2.33362 6.2 2.33362 6.1664 2.36722C3 3.36722 1.2664 6.73362 2.2664 9.90082C2.8664 11.7672 4.3 13.2008 6.1664 13.8008C6.3 13.8672 6.4328 13.8008 6.4664 13.6672C6.5 13.6336 6.5 13.6008 6.5 13.5336V13.0672C6.5 12.9664 6.4 12.8336 6.3 12.7664ZM9.8328 2.36642C9.6992 2.30002 9.5664 2.36642 9.5328 2.50002C9.4992 2.53362 9.4992 2.56642 9.4992 2.63362V3.10002C9.4992 3.23362 9.5992 3.36642 9.6992 3.43362C12.2992 4.36722 13.6328 7.26722 12.6656 9.83362C12.1656 11.2336 11.0656 12.3 9.6992 12.8C9.5656 12.8664 9.4992 12.9664 9.4992 13.1336V13.6C9.4992 13.7336 9.5656 13.8336 9.6992 13.8664C9.7328 13.8664 9.7992 13.8664 9.8328 13.8328C12.9992 12.8328 14.7328 9.46642 13.7328 6.29922C13.1328 4.40002 11.6664 2.96642 9.8328 2.36642Z" fill="white"/>
</g>
<defs>
<clipPath id="clip0_103_553">
<rect width="16" height="16" fill="white"/>
</clipPath>
</defs>
</svg>